<?xml version="1.0" encoding="UTF-8" standalone="no"?>
<!-- Created with Inkscape (http://www.inkscape.org/) -->

<svg
   width="97.133911mm"
   height="30.976776mm"
   viewBox="0 0 97.133911 30.976776"
   id="SVGRoot"
   version="1.1"
   inkscape:version="1.3 (0e150ed, 2023-07-21)"
   sodipodi:docname="ceedling.svg"
   xmlns:inkscape="http://www.inkscape.org/namespaces/inkscape"
   xmlns:sodipodi="http://sodipodi.sourceforge.net/DTD/sodipodi-0.dtd"
   xmlns="http://www.w3.org/2000/svg"
   xmlns:svg="http://www.w3.org/2000/svg">
  <sodipodi:namedview
     inkscape:document-units="mm"
     inkscape:zoom="1.6099916"
     inkscape:cx="282.61017"
     inkscape:cy="98.758279"
     id="namedview1"
     pagecolor="#ffffff"
     bordercolor="#000000"
     borderopacity="0.25"
     inkscape:showpageshadow="2"
     inkscape:pageopacity="0.0"
     inkscape:pagecheckerboard="0"
     inkscape:deskcolor="#d1d1d1"
     inkscape:window-width="2384"
     inkscape:window-height="1205"
     inkscape:window-x="63"
     inkscape:window-y="36"
     inkscape:window-maximized="0"
     inkscape:current-layer="layer1" />
  <defs
     id="defs1">
    <rect
       x="74.475204"
       y="65.034683"
       width="205.06905"
       height="106.46807"
       id="rect2" />
    <rect
       x="14.685251"
       y="36.713127"
       width="250.17374"
       height="118.00648"
       id="rect1" />
  </defs>
  <g
     inkscape:label="Layer 1"
     inkscape:groupmode="layer"
     id="layer1"
     transform="translate(-6.0213221,-4.1692327)">
    <text
       xml:space="preserve"
       style="font-size:20.9022px;font-family:'Hoefler Text';-inkscape-font-specification:'Hoefler Text';letter-spacing:-0.734842px;fill:#40b04f;stroke:#3fb03f;stroke-width:0.185157;stroke-dasharray:none"
       x="33.266129"
       y="30.390062"
       id="text2-5"
       transform="scale(1.0182432,0.98208365)"><tspan
         sodipodi:role="line"
         id="tspan1-8"
         style="font-style:normal;font-variant:normal;font-weight:normal;font-stretch:normal;font-family:'Euphemia UCAS';-inkscape-font-specification:'Euphemia UCAS';letter-spacing:-0.734842px;fill:#000000;fill-opacity:1;stroke:#000000;stroke-width:0.185157;stroke-dasharray:none;stroke-opacity:1"
         x="33.266129"
         y="30.390062"
         dx="0">eedling</tspan></text>
    <ellipse
       style="fill:#3fb04e;fill-opacity:1;stroke:#3fb04e;stroke-width:0.185157;stroke-dasharray:none;stroke-opacity:1"
       id="path3"
       cx="74.850098"
       cy="15.453616"
       rx="1.1163616"
       ry="1.0767177" />
    <path
       fill="#2ba52e"
       d="m 28.238853,15.163619 -0.0071,-0.0049 c -0.188853,-0.133042 -0.450726,-0.286254 -0.753292,-0.416102 -0.605166,-0.259158 -1.357066,-0.349122 -2.057014,-0.197424 -0.700385,0.149723 -1.349173,0.539246 -1.795965,1.016971 -0.223164,0.239851 -0.399812,0.483081 -0.517921,0.679017 a 3.2459831,3.2133734 0 0 0 -0.08457,0.145019 c -0.04097,0.01719 -0.08246,0.0357 -0.123655,0.05695 -0.163345,0.08031 -0.333874,0.181362 -0.496536,0.308777 -0.163423,0.126388 -0.322068,0.274922 -0.469923,0.440899 -0.148787,0.165542 -0.281703,0.351121 -0.404511,0.545383 -0.123709,0.194178 -0.22942,0.400821 -0.32464,0.610739 l -0.06948,0.158159 -0.0625,0.159866 -0.03107,0.07982 -0.02779,0.08036 -0.05513,0.160212 c -0.01726,0.05343 -0.03264,0.107 -0.0489,0.160163 -0.01538,0.0533 -0.03339,0.105974 -0.0463,0.159054 l -0.0096,0.03667 c -0.08132,-0.120087 -0.16897,-0.231845 -0.262279,-0.332707 -0.106447,-0.115003 -0.21852,-0.217353 -0.332371,-0.30783 -0.228188,-0.180847 -0.464929,-0.309832 -0.683258,-0.401284 a 2.8950941,2.8660091 0 0 0 -0.35343,-0.118983 l 0.0017,-0.0055 h 2.7e-5 v -2.7e-5 h -2.7e-5 c 0,0 -0.105872,-0.07563 -0.27389,-0.16046 -0.169271,-0.08812 -0.400465,-0.184713 -0.662361,-0.257777 -0.523711,-0.145667 -1.148517,-0.136933 -1.703857,0.06368 -0.555914,0.199073 -1.042862,0.588539 -1.3548,1.028002 -0.155696,0.220543 -0.272932,0.438735 -0.347638,0.61185 l -0.0024,0.0051 c -0.07391,0.166921 -0.0035,0.362695 0.160282,0.445927 l 0.0064,0.0032 c 0.169272,0.0881 0.400468,0.184715 0.662365,0.25778 0.523711,0.145666 1.148516,0.136934 1.703856,-0.06369 0.555918,-0.199045 1.042863,-0.588511 1.354801,-1.028004 a 3.7240782,3.6866654 0 0 0 0.185085,-0.290578 1.9697697,1.9499811 0 0 1 0.25933,0.08958 c 0.14578,0.0639 0.30396,0.152562 0.455722,0.276518 0.07563,0.06206 0.669714,0.676475 0.669714,1.385102 a 1.8979311,1.8788641 0 0 1 0.03346,0.365859 l -0.0034,0.470508 -0.007,0.962187 -0.03707,5.15846 v 0.0075 c 0.0021,0.29147 1.068292,0.283953 1.066186,-0.0075 l -0.03707,-5.15846 -0.0027,-0.378596 c 0.0052,-0.02679 0.0078,-0.05452 0.0074,-0.08286 l -0.0034,-0.298043 -6.83e-4,-0.07444 0.001,-0.07826 0.0027,-0.176306 c 7.8e-5,-0.06265 0.0038,-0.130714 0.0069,-0.202211 0.0036,-0.07144 0.0055,-0.14691 0.01083,-0.225086 l 0.01801,-0.243824 c 0.0067,-0.0842 0.0174,-0.170491 0.02624,-0.259699 0.02023,-0.177847 0.04658,-0.36448 0.0814,-0.55555 l 0.01255,-0.07215 0.0151,-0.07191 0.03052,-0.14548 c 0.0093,-0.04919 0.02338,-0.09691 0.03494,-0.145909 0.01237,-0.04868 0.02386,-0.098 0.03704,-0.146859 l 0.04251,-0.146045 0.02133,-0.07344 0.0243,-0.07231 0.04864,-0.145209 0.05468,-0.142637 c 0.07498,-0.189097 0.15859,-0.37454 0.256896,-0.546223 0.09749,-0.171977 0.202815,-0.335681 0.320435,-0.47959 0.116854,-0.144532 0.241573,-0.272949 0.369409,-0.382275 0.127232,-0.110405 0.260092,-0.197234 0.387135,-0.267703 0.04714,-0.02764 0.09486,-0.04975 0.140999,-0.07112 0.181972,0.121844 0.41874,0.25575 0.687849,0.371239 0.605135,0.259158 1.357066,0.349123 2.057014,0.197425 0.700385,-0.149753 1.349174,-0.539273 1.795962,-1.01697 0.223164,-0.239879 0.399812,-0.48311 0.517921,-0.679045 l 0.0036,-0.0058 c 0.116281,-0.188662 0.06384,-0.435028 -0.119312,-0.561389 z"
       id="path1-7"
       style="stroke-width:0.0271774" />
    <path
       id="path1-3"
       style="font-size:85.3333px;font-family:'Hoefler Text';-inkscape-font-specification:'Hoefler Text';white-space:pre;fill:#808080;fill-opacity:1;stroke:none;stroke-width:0.925786"
       d="m 29.274701,22.299607 c -10.226342,0.116398 -9.130894,3.15799 -16.917817,1.29735 3.481625,4.654552 6.591085,4.673606 8.7809,4.885028 5.83196,-0.325414 6.786081,-2.548121 9.531302,-6.181068 -0.664304,-0.01452 -0.730842,-0.02612 -1.394385,-0.0013 z"
       sodipodi:nodetypes="ccccc" />
    <path
       id="path7"
       style="fill:none;fill-opacity:1;stroke:#000000;stroke-width:1.94415;stroke-dasharray:none;stroke-opacity:1"
       d="m 32.384773,21.667847 a 11.845839,11.425172 0 0 1 -2.300778,3.707001 v 0 A 11.845839,11.425172 0 0 1 13.357505,26.27562 11.845839,11.425172 0 0 1 12.423571,10.143116 11.845839,11.425172 0 0 1 29.150062,9.2423456 11.845839,11.425172 0 0 1 32.566804,14.370973" />
  </g>
</svg>
