<?xml version="1.0" encoding="UTF-8" standalone="no"?>
<!-- Created with Inkscape (http://www.inkscape.org/) -->

<svg
   width="182mm"
   height="40mm"
   viewBox="0 0 182 40"
   id="SVGRoot"
   version="1.1"
   inkscape:version="1.3 (0e150ed, 2023-07-21)"
   sodipodi:docname="ceedling.svg"
   xmlns:inkscape="http://www.inkscape.org/namespaces/inkscape"
   xmlns:sodipodi="http://sodipodi.sourceforge.net/DTD/sodipodi-0.dtd"
   xmlns="http://www.w3.org/2000/svg"
   xmlns:svg="http://www.w3.org/2000/svg">
  <sodipodi:namedview
     inkscape:document-units="mm"
     inkscape:zoom="1.6099916"
     inkscape:cx="217.39244"
     inkscape:cy="110.55958"
     id="namedview1"
     pagecolor="#ffffff"
     bordercolor="#000000"
     borderopacity="0.25"
     inkscape:showpageshadow="2"
     inkscape:pageopacity="0.0"
     inkscape:pagecheckerboard="0"
     inkscape:deskcolor="#d1d1d1"
     inkscape:window-width="2384"
     inkscape:window-height="1205"
     inkscape:window-x="63"
     inkscape:window-y="64"
     inkscape:window-maximized="0"
     inkscape:current-layer="layer1" />
  <defs
     id="defs1">
    <rect
       x="74.475204"
       y="65.034683"
       width="205.06905"
       height="106.46807"
       id="rect2" />
    <rect
       x="14.685251"
       y="36.713127"
       width="250.17374"
       height="118.00648"
       id="rect1" />
  </defs>
  <g
     inkscape:label="Layer 1"
     inkscape:groupmode="layer"
     id="layer1">
    <text
       xml:space="preserve"
       style="font-size:22.5778px;font-family:'Hoefler Text';-inkscape-font-specification:'Hoefler Text';letter-spacing:-0.79375px;fill:#40b04f;stroke:#3fb03f;stroke-width:0.2;stroke-dasharray:none"
       x="33.017742"
       y="29.908678"
       id="text2-5"><tspan
         sodipodi:role="line"
         id="tspan1-8"
         style="font-style:normal;font-variant:normal;font-weight:normal;font-stretch:normal;font-family:'Euphemia UCAS';-inkscape-font-specification:'Euphemia UCAS';letter-spacing:-0.79375px;fill:#000000;fill-opacity:1;stroke:#000000;stroke-width:0.2;stroke-dasharray:none;stroke-opacity:1"
         x="33.017742"
         y="29.908678"
         dx="0">eedling</tspan></text>
    <circle
       style="fill:#3fb04e;fill-opacity:1;stroke:#3fb04e;stroke-width:0.2;stroke-dasharray:none;stroke-opacity:1"
       id="path3"
       cx="76.486671"
       cy="14.079399"
       r="1.1842486" />
    <path
       fill="#2ba52e"
       d="m 27.040957,13.760441 -0.0075,-0.0054 c -0.200337,-0.146328 -0.478135,-0.314841 -0.7991,-0.457657 -0.641967,-0.28504 -1.439591,-0.383989 -2.182103,-0.217141 -0.742976,0.164676 -1.431218,0.5931 -1.905179,1.118535 -0.236735,0.263805 -0.424125,0.531326 -0.549416,0.74683 a 3.4433741,3.5342903 0 0 0 -0.08971,0.159502 c -0.04346,0.01891 -0.08748,0.03926 -0.131175,0.06264 -0.173278,0.08833 -0.354177,0.199474 -0.52673,0.339614 -0.173361,0.13901 -0.341654,0.302378 -0.4985,0.484931 -0.157835,0.182075 -0.298833,0.386187 -0.42911,0.59985 -0.131231,0.21357 -0.243371,0.440851 -0.344381,0.671733 l -0.07371,0.173954 -0.0663,0.175832 -0.03296,0.08779 -0.02948,0.08839 -0.05848,0.176213 c -0.01831,0.05877 -0.03463,0.117686 -0.05187,0.176158 -0.01632,0.05862 -0.03542,0.116557 -0.04912,0.174939 l -0.01019,0.04033 c -0.08626,-0.13208 -0.179246,-0.255 -0.278229,-0.365935 -0.11292,-0.126488 -0.231808,-0.23906 -0.352582,-0.338572 -0.242065,-0.198908 -0.493202,-0.340775 -0.724808,-0.44136 a 3.0711472,3.152235 0 0 0 -0.374948,-0.130859 l 0.0018,-0.006 h 2.9e-5 v -3e-5 h -2.9e-5 c 0,0 -0.11231,-0.08318 -0.290545,-0.176485 -0.179565,-0.09692 -0.424818,-0.20316 -0.70264,-0.283521 -0.555558,-0.160215 -1.218359,-0.150608 -1.80747,0.07004 -0.589719,0.218954 -1.106279,0.647316 -1.437186,1.130668 -0.165164,0.242568 -0.28953,0.482551 -0.368778,0.672954 l -0.0025,0.0056 c -0.07841,0.183591 -0.0037,0.398917 0.170029,0.490461 l 0.0068,0.0035 c 0.179565,0.0969 0.424821,0.203162 0.702644,0.283524 0.555558,0.160214 1.218358,0.15061 1.807469,-0.07005 0.589724,-0.218924 1.10628,-0.647285 1.437187,-1.13067 a 3.9505425,4.0548495 0 0 0 0.196341,-0.319598 2.089553,2.144724 0 0 1 0.2751,0.09853 c 0.154645,0.07028 0.322444,0.167798 0.483435,0.304133 0.08023,0.06826 0.710439,0.744034 0.710439,1.523431 a 2.0133459,2.0665046 0 0 1 0.0355,0.402397 l -0.0036,0.517497 -0.0074,1.05828 -0.03932,5.673631 v 0.0083 c 0.0022,0.320579 1.133255,0.312311 1.131021,-0.0083 l -0.03932,-5.673631 -0.0029,-0.416406 c 0.0055,-0.02947 0.0083,-0.05996 0.0079,-0.09113 l -0.0036,-0.327808 -7.25e-4,-0.08188 0.0011,-0.08607 0.0029,-0.193914 c 8.3e-5,-0.06891 0.004,-0.143768 0.0073,-0.222405 0.0038,-0.07857 0.0058,-0.161582 0.01149,-0.247565 l 0.01911,-0.268175 c 0.0071,-0.09261 0.01846,-0.187517 0.02784,-0.285635 0.02146,-0.195608 0.04941,-0.40088 0.08635,-0.611032 l 0.01331,-0.07935 0.01602,-0.07909 0.03238,-0.160009 c 0.0099,-0.0541 0.0248,-0.10659 0.03706,-0.160481 0.01312,-0.05354 0.02531,-0.107785 0.03929,-0.161526 l 0.04509,-0.16063 0.02263,-0.08078 0.02578,-0.07953 0.0516,-0.15971 0.05801,-0.156883 c 0.07954,-0.207981 0.168235,-0.411945 0.272519,-0.600773 0.103417,-0.189152 0.215148,-0.369205 0.33992,-0.527487 0.123961,-0.158966 0.256264,-0.300208 0.391874,-0.420452 0.134969,-0.121431 0.275908,-0.216932 0.410677,-0.294438 0.05001,-0.0304 0.100633,-0.05472 0.149573,-0.07822 0.193038,0.134013 0.444204,0.281292 0.729677,0.408315 0.641934,0.28504 1.439591,0.383989 2.182103,0.217141 0.742976,-0.164708 1.431219,-0.593129 1.905176,-1.118534 0.236735,-0.263835 0.424125,-0.531357 0.549416,-0.74686 l 0.0038,-0.0064 c 0.123352,-0.207504 0.06772,-0.478474 -0.126567,-0.617455 z"
       id="path1-7"
       style="stroke-width:0.029356" />
    <path
       id="path1-3"
       style="font-size:85.3333px;font-family:'Hoefler Text';-inkscape-font-specification:'Hoefler Text';white-space:pre;fill:#808080;fill-opacity:1;stroke:none"
       d="m 28.139796,21.609094 c -10.848215,0.128022 -9.686152,3.473375 -17.946604,1.426915 3.693345,5.119398 6.991894,5.140355 9.314874,5.372892 6.186606,-0.357913 7.198748,-2.8026 10.110908,-6.798367 -0.704701,-0.01597 -0.775285,-0.02873 -1.479178,-0.0014 z"
       sodipodi:nodetypes="ccccc" />
    <path
       id="path7"
       style="fill:none;fill-opacity:1;stroke:#000000;stroke-width:2.1;stroke-dasharray:none;stroke-opacity:1"
       d="m 31.438994,22.078269 a 12.566194,12.566194 0 0 1 -2.44069,4.077216 v 0 A 12.566194,12.566194 0 0 1 11.254662,27.146217 12.566194,12.566194 0 0 1 10.263934,9.4025727 12.566194,12.566194 0 0 1 28.007577,8.4118433 12.566194,12.566194 0 0 1 31.632094,14.052663" />
  </g>
</svg>
